# xmcd CD database file
#
# Track frame offsets:
#	150
#	14678
#	28730
#	43788
#	58187
#	69919
#	82655
#	96489
#	110309
#	125047
#	137111
#	151298
#	174898
#	189218
#	204736
#	218518
#	231229
#	249119
#	261119
#	274388
#
# Disc length: 3833 seconds
#
# Revision: 3
# Processed by: cddbd v1.5.2PL0 Copyright (c) Steve Scherf et al.
# Submitted via: CDex 1.81
#
DISCID=170ef714
DTITLE=Various Artist - Jazz The Best Of Best [Disc 2]
DYEAR=2010
DGENRE=Jazz
TTITLE0=Billie's Bounce/Miles Davis
TTITLE1=Night In Tunisia/Charlie Parker
TTITLE2=I Fall In Love Too Easily/Chet Baker
TTITLE3=Round Midnight/Thelonius Monk
TTITLE4=A Little Duet For Zoot And Chet/Chet Baker And Zoot Sims
TTITLE5=Bird Feathers/Cherlie Parker All Star Sextet
TTITLE6=But Not For Me/Chet Baker
TTITLE7=Donna Lee/Miles Davis
TTITLE8=Nola/Lionel Hampton
TTITLE9=Yardbird Suite/Charlie Parker
TTITLE10=Four Or Five Times/Woody herman
TTITLE11=Groovin' High/Charlie Parker
TTITLE12=These Foolish Things/Lester Young
TTITLE13=Indiana/Art Tatum
TTITLE14=Dave Brubeck Quartet/I'm In A Dancing Mood
TTITLE15=What A Difference A Day Makes/Sarah Vaughan
TTITLE16=The Song Is You/J.J.Johnson And Kaiwinding
TTITLE17=Milestones/Miles Davis
TTITLE18=In Walked Bud/Thelonius Monk
TTITLE19=Be Bop/Charlie Parker
EXTD=YEAR: 2010
EXTT0=
EXTT1=
EXTT2=
EXTT3=
EXTT4=
EXTT5=
EXTT6=
EXTT7=
EXTT8=
EXTT9=
EXTT10=
EXTT11=
EXTT12=
EXTT13=
EXTT14=
EXTT15=
EXTT16=
EXTT17=
EXTT18=
EXTT19=
PLAYORDER=
